<svg width="28" height="28" viewBox="0 0 28 28" fill="none" xmlns="http://www.w3.org/2000/svg">
<g id="Iconly/Bold/Search">
<g id="Search">
<path id="Search_2" fill-rule="evenodd" clip-rule="evenodd" d="M2.33325 12.4482C2.33325 6.86191 6.81365 2.33331 12.3405 2.33331C14.9946 2.33331 17.54 3.39899 19.4167 5.2959C21.2934 7.19282 22.3477 9.76558 22.3477 12.4482C22.3477 18.0345 17.8673 22.5631 12.3405 22.5631C6.81365 22.5631 2.33325 18.0345 2.33325 12.4482ZM22.1822 20.5966L25.1626 23.0024H25.2143C25.8173 23.6119 25.8173 24.6001 25.2143 25.2095C24.6114 25.819 23.6337 25.819 23.0308 25.2095L20.5574 22.3748C20.3236 22.1393 20.1922 21.8194 20.1922 21.4857C20.1922 21.1521 20.3236 20.8321 20.5574 20.5966C21.0084 20.1487 21.7312 20.1487 22.1822 20.5966Z" fill="#00A198"/>
</g>
</g>
</svg>
